<svg width="50" height="40" viewBox="0 0 50 40" fill="none" xmlns="http://www.w3.org/2000/svg">
<path d="M46.2602 5H44.7602V3.5C44.7602 1.57 43.1902 0 41.2602 0H3.74023C1.81023 0 0.240234 1.57 0.240234 3.5V30.53C0.240234 32.46 1.81023 34.03 3.74023 34.03H5.24023V35.53C5.24023 37.46 6.81023 39.03 8.74023 39.03H46.2602C48.1902 39.03 49.7602 37.46 49.7602 35.53V8.5C49.7602 6.58 48.1902 5 46.2602 5ZM35.7202 32.04L29.1502 25.47L35.0002 19.62L42.7602 27.38V30.54C42.7602 31.37 42.0902 32.04 41.2602 32.04H35.7202ZM3.74023 2H41.2602C42.0902 2 42.7602 2.67 42.7602 3.5V24.55L35.7102 17.5C35.3202 17.11 34.6902 17.11 34.3002 17.5L27.7502 24.05L15.8902 12.2C15.5002 11.81 14.8702 11.81 14.4802 12.2L2.24023 24.43V3.5C2.24023 2.68 2.91023 2 3.74023 2ZM2.24023 30.54V27.26L15.1802 14.32L32.9002 32.04H3.74023C2.91023 32.04 2.24023 31.36 2.24023 30.54ZM47.7602 35.54C47.7602 36.37 47.0902 37.04 46.2602 37.04H8.74023C7.91023 37.04 7.24023 36.37 7.24023 35.54V34.04H41.2602C43.1902 34.04 44.7602 32.47 44.7602 30.54V7H46.2602C47.0902 7 47.7602 7.67 47.7602 8.5V35.54Z" fill="#B5B5B5"/>
</svg>
