<svg width="20" height="20" viewBox="0 0 20 20" fill="none" xmlns="http://www.w3.org/2000/svg">
<path d="M0 14.75C0 16.5449 1.45507 18 3.25 18H8.1651L8.5209 16.5768C8.5273 16.5511 8.534 16.5255 8.541 16.5H3.25C2.2835 16.5 1.5 15.7165 1.5 14.75V8H4.75L4.93442 7.9949C6.64354 7.8992 8 6.48303 8 4.75V1.5H14.75C15.7165 1.5 16.5 2.2835 16.5 3.25V8.2324C16.9789 8.0419 17.4935 7.9685 18 8.0122V3.25C18 1.45507 16.5449 0 14.75 0H7.8713C7.2746 0 6.70229 0.23705 6.28033 0.65901L0.65901 6.28033C0.23705 6.70229 0 7.2746 0 7.8713V14.75ZM4.75 6.5H2.561L6.5 2.561V4.75L6.4942 4.89353C6.42119 5.79289 5.66817 6.5 4.75 6.5ZM16.0999 9.6695L10.1974 15.5719C9.8533 15.916 9.6092 16.3472 9.4911 16.8194L9.0334 18.6501C8.8344 19.4462 9.5556 20.1674 10.3517 19.9683L12.1824 19.5106C12.6545 19.3926 13.0857 19.1485 13.4299 18.8043L19.3323 12.9019C20.2249 12.0093 20.2249 10.5621 19.3323 9.6695C18.4397 8.7768 16.9925 8.7768 16.0999 9.6695Z" fill="#212121"/>
</svg>
