<svg width="32" height="32" viewBox="0 0 32 32" fill="none" xmlns="http://www.w3.org/2000/svg">
<g clip-path="url(#clip0_332_2)">
<path d="M4 12C4 8.8174 5.26428 5.76515 7.51472 3.51472C9.76515 1.26428 12.8174 0 16 0C19.1826 0 22.2348 1.26428 24.4853 3.51472C26.7357 5.76515 28 8.8174 28 12C28 20 16 32 16 32C16 32 4 20 4 12ZM11 12C11 13.3261 11.5268 14.5979 12.4645 15.5355C13.4021 16.4732 14.6739 17 16 17C17.3261 17 18.5979 16.4732 19.5355 15.5355C20.4732 14.5979 21 13.3261 21 12C21 10.6739 20.4732 9.40215 19.5355 8.46447C18.5979 7.52678 17.3261 7 16 7C14.6739 7 13.4021 7.52678 12.4645 8.46447C11.5268 9.40215 11 10.6739 11 12Z" fill="#ECAD0A"/>
</g>
<defs>
<clipPath id="clip0_332_2">
<rect width="32" height="32" fill="white"/>
</clipPath>
</defs>
</svg>
