<svg width="20" height="20" viewBox="0 0 20 20" fill="none" xmlns="http://www.w3.org/2000/svg">
<path d="M6.4064 1.5316L6.14685 2.87197C5.94451 3.91693 4.86398 4.54078 3.85785 4.19354L2.56441 3.74714C2.3293 4.0671 2.12811 4.41323 1.966 4.78022L3.00052 5.67816C3.80436 6.37588 3.80435 7.62363 3.00052 8.3214L1.96585 9.2194C2.12792 9.5864 2.32906 9.9325 2.56412 10.2525L3.85785 9.806C4.86398 9.4587 5.94451 10.0826 6.14685 11.1275L6.40649 12.4684C6.79883 12.5104 7.20971 12.5101 7.60186 12.4675L7.86133 11.1275C8.0637 10.0826 9.1442 9.4587 10.1503 9.806L11.4377 10.2503C11.6731 9.9295 11.8745 9.5824 12.0366 9.2144L11.0077 8.3214C10.2038 7.62363 10.2038 6.37588 11.0077 5.67816L12.0364 4.78524C11.8743 4.41723 11.6729 4.07015 11.4374 3.74935L10.1503 4.19354C9.1442 4.54078 8.0637 3.91693 7.86133 2.87198L7.60196 1.53249C7.20974 1.48987 6.7988 1.48956 6.4064 1.5316ZM5.62366 0.13542C6.0693 0.0465101 6.52964 0 7.00009 0C7.47383 0 7.93731 0.04716 8.3859 0.13729C8.6841 0.19721 8.9166 0.43136 8.9744 0.73001L9.334 2.58682C9.3629 2.73609 9.5172 2.82522 9.661 2.77561L11.4455 2.15971C11.7329 2.06053 12.0518 2.14465 12.2528 2.3727C12.8613 3.06285 13.3363 3.87455 13.6365 4.76741C13.7334 5.05553 13.6468 5.37364 13.4173 5.57289L11.9909 6.81096C11.8761 6.91063 11.8761 7.08888 11.9909 7.18855L13.4174 8.4267C13.647 8.626 13.7336 8.9441 13.6367 9.2322C13.3365 10.125 12.8615 10.9367 12.2532 11.6269C12.0521 11.855 11.7333 11.9391 11.4459 11.8399L9.661 11.2239C9.5172 11.1743 9.3629 11.2634 9.334 11.4127L8.9743 13.27C8.9165 13.5687 8.684 13.8028 8.3857 13.8627C7.93723 13.9528 7.47379 14 7.00009 14C6.52968 14 6.06938 13.9535 5.62377 13.8646C5.32507 13.805 5.09208 13.5707 5.03417 13.2717L4.67421 11.4127C4.6453 11.2634 4.49094 11.1743 4.34721 11.2239L2.55618 11.842C2.26889 11.9412 1.95016 11.8572 1.74909 11.6293C1.1411 10.9401 0.6662 10.1297 0.36553 9.2382C0.26832 8.9499 0.35485 8.6315 0.58458 8.4321L2.01727 7.18856C2.1321 7.08888 2.1321 6.91063 2.01727 6.81096L0.58471 5.56752C0.35496 5.3681 0.26844 5.04965 0.36568 4.76139C0.66642 3.86988 1.14139 3.05944 1.74946 2.37033C1.95053 2.14246 2.26924 2.05845 2.55651 2.1576L4.34721 2.77561C4.49094 2.82522 4.6453 2.73609 4.67421 2.58681L5.03408 0.72835C5.09198 0.42932 5.32497 0.19501 5.62366 0.13542ZM11.9406 12.6339C11.749 12.5678 11.5344 12.6223 11.4119 12.7838C11.1879 13.0793 10.9995 13.4034 10.8532 13.7495C10.7743 13.9362 10.8344 14.1495 10.9875 14.2824L11.9946 15.1565C12.2034 15.3378 12.2034 15.6618 11.9946 15.8431L10.9874 16.7173C10.8343 16.8502 10.7742 17.0635 10.8531 17.2502C10.9994 17.5963 11.1877 17.9203 11.4117 18.2158C11.5341 18.3773 11.7488 18.4319 11.9403 18.3658L13.2 17.931C13.4614 17.8408 13.742 18.0028 13.7946 18.2742L14.048 19.583C14.0866 19.7822 14.2415 19.941 14.4429 19.9658C14.6254 19.9884 14.8114 20 15 20C15.1887 20 15.3746 19.9884 15.5571 19.9658C15.7585 19.941 15.9135 19.7822 15.952 19.583L16.2054 18.2742C16.258 18.0028 16.5387 17.8408 16.8 17.931L18.0597 18.3658C18.2513 18.4319 18.4659 18.3773 18.5883 18.2158C18.8123 17.9203 19.0006 17.5963 19.1469 17.2502C19.2258 17.0635 19.1657 16.8502 19.0126 16.7174L18.0054 15.8431C17.7966 15.6618 17.7966 15.3378 18.0054 15.1565L19.0125 14.2824C19.1656 14.1495 19.2257 13.9362 19.1468 13.7495C19.0005 13.4033 18.8121 13.0793 18.5881 12.7838C18.4656 12.6223 18.251 12.5678 18.0595 12.6339L16.8 13.0686C16.5387 13.1588 16.258 12.9968 16.2054 12.7254L15.9521 11.417C15.9135 11.2178 15.7586 11.059 15.5572 11.0342C15.3747 11.0116 15.1887 11 15 11C14.8113 11 14.6254 11.0116 14.4428 11.0342C14.2414 11.059 14.0865 11.2178 14.0479 11.417L13.7946 12.7254C13.742 12.9968 13.4614 13.1588 13.2 13.0686L11.9406 12.6339ZM14.9998 16.7506C14.3091 16.7506 13.7492 16.1907 13.7492 15.5C13.7492 14.8094 14.3091 14.2495 14.9998 14.2495C15.6905 14.2495 16.2504 14.8094 16.2504 15.5C16.2504 16.1907 15.6905 16.7506 14.9998 16.7506ZM6.00003 6.99993C6.00003 6.44771 6.44772 6 7.00003 6C7.55234 6 8 6.44771 8 6.99993C8 7.55215 7.55234 7.99986 7.00003 7.99986C6.44772 7.99986 6.00003 7.55215 6.00003 6.99993ZM7.00003 4.5C5.61935 4.5 4.50003 5.61923 4.50003 6.99993C4.50003 8.3806 5.61935 9.4999 7.00003 9.4999C8.3807 9.4999 9.5 8.3806 9.5 6.99993C9.5 5.61923 8.3807 4.5 7.00003 4.5Z" fill="#212121"/>
</svg>
